<?xml version="1.0" ?><svg xmlns="http://www.w3.org/2000/svg" xmlns:xlink="http://www.w3.org/1999/xlink" version="1.1" viewBox="0 0 512 512" style="enable-background:new 0 0 512 512;" xml:space="preserve"><g id="_x34_6_x2C__Debate_x2C__politics_x2C__elections_x2C__government_x2C__podium_x2C__communications_x2C__speech_x2C__talk"><g><g><path style="fill:#283954;" d="M451,165.993c0-19.299-15.701-35-35-35h-20.473c-2.277-24.136-12.773-46.53-30.133-63.89     l-6.462-6.463c-3.902-3.905-10.235-3.905-14.142-0.001c-3.905,3.904-3.906,10.236-0.001,14.142l6.462,6.464     c13.577,13.576,21.941,30.965,24.143,49.748H136.606c2.202-18.783,10.566-36.172,24.143-49.749l6.462-6.463     c3.905-3.905,3.904-10.237-0.001-14.142c-3.904-3.906-10.237-3.905-14.142,0.001l-6.462,6.462     c-17.36,17.361-27.856,39.755-30.133,63.891H96c-19.299,0-35,15.701-35,35c0,17.601,13.062,32.203,30,34.637v0.363     c0,29.676,21.661,54.374,50,59.151V415.18c-15.132,6.632-26.366,20.542-29.257,37.281C99.719,456.372,91,467.681,91,480.993     c0,16.542,13.458,30,30,30h270c16.542,0,30-13.458,30-30c0-13.312-8.719-24.621-20.743-28.532     c-2.891-16.739-14.125-30.649-29.257-37.281V260.144c28.339-4.777,50-29.475,50-59.151v-0.363     C437.938,198.195,451,183.594,451,165.993z M391,490.993H121c-5.514,0-10-4.486-10-10s4.486-10,10-10h270c5.514,0,10,4.486,10,10     S396.514,490.993,391,490.993z M379.286,450.993H132.714c4.127-11.641,15.249-20,28.286-20h190     C364.037,430.993,375.159,439.352,379.286,450.993z M161,410.993v-150h190v150H161z M361,240.993H151c-22.056,0-40-17.944-40-40     h290C401,223.048,383.056,240.993,361,240.993z M416,180.993H96c-8.271,0-15-6.729-15-15s6.729-15,15-15h320     c8.271,0,15,6.729,15,15S424.271,180.993,416,180.993z"/></g><g><path style="fill:#5596FB;" d="M311,290.993H201c-5.522,0-10,4.478-10,10v71.26c0,5.522,4.478,10,10,10h110     c5.522,0,10-4.478,10-10v-71.26C321,295.47,316.522,290.993,311,290.993z M301,362.252h-90v-51.26h90V362.252z"/><path style="fill:#5596FB;" d="M218.07,52.206c11.726-11.724,11.727-30.7,0-42.427c-11.696-11.696-30.729-11.694-42.426,0     L153.07,32.354c-11.696,11.697-11.695,30.729,0.001,42.425c11.724,11.726,30.7,11.727,42.426,0.001L218.07,52.206z      M167.214,60.638L167.214,60.638c-3.899-3.899-3.899-10.244-0.001-14.143l22.573-22.574c3.899-3.897,10.243-3.9,14.143,0     c3.902,3.902,3.916,10.225,0,14.142l-22.574,22.575C177.451,64.539,171.13,64.552,167.214,60.638z"/><path style="fill:#5596FB;" d="M358.93,32.353L336.354,9.779c-11.696-11.696-30.729-11.694-42.426,0     c-11.724,11.726-11.726,30.701,0,42.427l22.574,22.573c11.724,11.726,30.701,11.727,42.426,0h0.001     C370.625,63.083,370.625,44.05,358.93,32.353z M344.786,60.637L344.786,60.637c-3.903,3.902-10.225,3.916-14.141,0L308.07,38.063     c-1.888-1.889-2.929-4.399-2.929-7.07c0-5.551,4.494-9.995,10.001-9.995c2.561,0,5.121,0.975,7.07,2.924l22.574,22.573     C348.686,50.394,348.686,56.739,344.786,60.637z"/></g></g></g><g id="Layer_1"/></svg>